<svg width="200" height="200" viewBox="0 0 200 200" fill="none" xmlns="http://www.w3.org/2000/svg">
    <rect x="0" y="0" width="200" height="200" fill="#001E2B"/>
    <g transform="translate(100, 100) scale(1.8) translate(-769.312, -101)">
        <path d="M778.921 57.4126C774.288 51.867 770.298 46.2348 769.483 45.065C769.397 44.9783 769.269 44.9783 769.183 45.065C768.368 46.2348 764.378 51.867 759.745 57.4126C719.978 108.579 766.008 143.109 766.008 143.109L766.395 143.369C766.738 148.698 767.596 156.367 767.596 156.367H769.312H771.028C771.028 156.367 771.886 148.741 772.229 143.369L772.615 143.066C772.658 143.109 818.688 108.579 778.921 57.4126ZM769.312 142.373C769.312 142.373 767.253 140.596 766.695 139.687V139.6L769.183 83.8841C769.183 83.7108 769.44 83.7108 769.44 83.8841L771.928 139.6V139.687C771.371 140.596 769.312 142.373 769.312 142.373Z" fill="#00ED64"/>
    </g>
</svg>