<svg width="200" height="200" viewBox="0 0 200 200" fill="none" xmlns="http://www.w3.org/2000/svg">
    <rect x="0" y="0" width="200" height="200" fill="#F5F7FA"/>
    <g transform="translate(100, 100) scale(1.8) translate(-468, -101)">
        <path d="M477.589 57.4126C472.956 51.867 468.966 46.2348 468.151 45.065C468.065 44.9783 467.937 44.9783 467.851 45.065C467.036 46.2348 463.046 51.867 458.413 57.4126C418.646 108.579 464.676 143.109 464.676 143.109L465.062 143.369C465.406 148.698 466.264 156.367 466.264 156.367H467.98H469.696C469.696 156.367 470.554 148.741 470.897 143.369L471.283 143.066C471.326 143.109 517.356 108.579 477.589 57.4126ZM467.98 142.373C467.98 142.373 465.92 140.596 465.363 139.687V139.6L467.851 83.8841C467.851 83.7108 468.108 83.7108 468.108 83.8841L470.596 139.6V139.687C470.039 140.596 467.98 142.373 467.98 142.373Z" fill="#00684A"/>
    </g>
</svg>