{
	"asset":{
		"version":"2.0",
		"generator":"Maxon Cinema 4D 2025.1.0 (#200000219)"
	},
	"scenes":[{
		"nodes":[0]
	}],
	"accessors":[{
		"bufferView":0,
		"type":"SCALAR",
		"componentType":5123,
		"count":60,
		"byteOffset":0,
		"min":[0],
		"max":[47]
	},
	{
		"bufferView":1,
		"type":"VEC3",
		"componentType":5126,
		"count":48,
		"byteOffset":0,
		"min":[-0.1301082968711853,
		-0.26030388474464419,
		-0.19015859067440034],
		"max":[0.1595994085073471,
		0.0689094290137291,
		0.13905471563339234]
	},
	{
		"bufferView":1,
		"type":"VEC3",
		"componentType":5126,
		"count":48,
		"byteOffset":12,
		"min":[-0.9438261985778809,
		-0.9341735243797302,
		-0.9173168540000916],
		"max":[0.9438261985778809,
		0.9341735243797302,
		0.9173168540000916]
	},
	{
		"bufferView":1,
		"type":"VEC2",
		"componentType":5126,
		"count":48,
		"byteOffset":24,
		"min":[0.0,
		0.0],
		"max":[1.0,
		0.8659999370574951]
	},
	{
		"bufferView":2,
		"type":"SCALAR",
		"componentType":5123,
		"count":144,
		"byteOffset":0,
		"min":[0],
		"max":[51]
	},
	{
		"bufferView":3,
		"type":"VEC3",
		"componentType":5126,
		"count":52,
		"byteOffset":0,
		"min":[-0.06279408186674118,
		0.026810696348547937,
		-0.016501842066645623],
		"max":[0.03330295905470848,
		0.1645837426185608,
		0.06760571151971817]
	},
	{
		"bufferView":3,
		"type":"VEC3",
		"componentType":5126,
		"count":52,
		"byteOffset":12,
		"min":[-0.9533403515815735,
		-0.9344870448112488,
		-0.9806264042854309],
		"max":[0.9533403515815735,
		0.9344870448112488,
		0.9806264042854309]
	},
	{
		"bufferView":3,
		"type":"VEC2",
		"componentType":5126,
		"count":52,
		"byteOffset":24,
		"min":[0.0,
		0.0],
		"max":[1.0,
		1.0]
	}],
	"nodes":[{
		"name":"basic_lemon",
		"children":[1,
		2]
	},
	{
		"name":"basic_lemon-yellow",
		"mesh":0
	},
	{
		"name":"basic_lemon-body",
		"mesh":1
	}],
	"meshes":[{
		"name":"basic_lemon-yellow",
		"primitives":[{
			"attributes":{
				"POSITION":1,
				"NORMAL":2,
				"TEXCOORD_0":3
			},
			"indices":0,
			"material":0
		}]
	},
	{
		"name":"basic_lemon-body",
		"primitives":[{
			"attributes":{
				"POSITION":5,
				"NORMAL":6,
				"TEXCOORD_0":7
			},
			"indices":4,
			"material":1
		}]
	}],
	"bufferViews":[{
		"buffer":0,
		"byteOffset":0,
		"byteLength":120,
		"target":34963
	},
	{
		"buffer":0,
		"byteOffset":120,
		"byteLength":1536,
		"target":34962,
		"byteStride":32
	},
	{
		"buffer":1,
		"byteOffset":0,
		"byteLength":288,
		"target":34963
	},
	{
		"buffer":1,
		"byteOffset":288,
		"byteLength":1664,
		"target":34962,
		"byteStride":32
	}],
	"buffers":[{
		"uri":"data:application/octet-stream;base64,",
		"byteLength":1656
	},
	{
		"uri":"data:application/octet-stream;base64,",
		"byteLength":1952
	}],
	"materials":[{
		"pbrMetallicRoughness":{
			"baseColorFactor":[1.0,
			0.9215686274509801,
			0.23137254901960786,
			1.0],
			"metallicFactor":0.0,
			"roughnessFactor":0.3
		},
		"emissiveFactor":[0.06666666666666668,
		0.06666666666666668,
		0.0],
		"alphaMode":"OPAQUE",
		"doubleSided":false,
		"name":"yellow"
	},
	{
		"pbrMetallicRoughness":{
			"baseColorFactor":[0.545098039215686,
			0.2705882352941175,
			0.07450980392156861,
			1.0],
			"metallicFactor":0.0,
			"roughnessFactor":1.0
		},
		"emissiveFactor":[0.0,
		0.0,
		0.0],
		"alphaMode":"OPAQUE",
		"doubleSided":false,
		"name":"body"
	}]
}