{
	"asset":{
		"version":"2.0",
		"generator":"Maxon Cinema 4D 2025.1.0 (#200000219)"
	},
	"scenes":[{
		"nodes":[0]
	}],
	"nodes":[{
		"name":"tree",
		"translation":[-0.1919214129447937,
		0.6626485586166382,
		-0.3666374087333679],
		"rotation":[0.0,
		0.0,
		0.0,
		-1.0],
		"scale":[1.0,
		1.0,
		1.0],
		"children":[1,
		2,
		3,
		4,
		5]
	},
	{
		"name":"tree-brown",
		"mesh":0
	},
	{
		"name":"tree-green",
		"mesh":1
	},
	{
		"name":"tree-lightgreen",
		"mesh":2
	},
	{
		"name":"tree-black",
		"mesh":3
	},
	{
		"name":"tree-pink",
		"mesh":4
	}],
	"meshes":[{
		"name":"tree-brown",
		"primitives":[{
			"attributes":{
				"POSITION":1,
				"NORMAL":2,
				"TEXCOORD_0":3
			},
			"indices":0,
			"material":0
		}]
	},
	{
		"name":"tree-green",
		"primitives":[{
			"attributes":{
				"POSITION":5,
				"NORMAL":6,
				"TEXCOORD_0":7
			},
			"indices":4,
			"material":1
		}]
	},
	{
		"name":"tree-lightgreen",
		"primitives":[{
			"attributes":{
				"POSITION":9,
				"NORMAL":10,
				"TEXCOORD_0":11
			},
			"indices":8,
			"material":2
		}]
	},
	{
		"name":"tree-black",
		"primitives":[{
			"attributes":{
				"POSITION":13,
				"NORMAL":14,
				"TEXCOORD_0":15
			},
			"indices":12,
			"material":3
		}]
	},
	{
		"name":"tree-pink",
		"primitives":[{
			"attributes":{
				"POSITION":17,
				"NORMAL":18,
				"TEXCOORD_0":19
			},
			"indices":16,
			"material":4
		}]
	}],
	"accessors":[{
		"bufferView":0,
		"type":"SCALAR",
		"componentType":5123,
		"count":3324,
		"byteOffset":0,
		"min":[0],
		"max":[3323]
	},
	{
		"bufferView":1,
		"type":"VEC3",
		"componentType":5126,
		"count":3324,
		"byteOffset":0,
		"min":[-1.1439287662506104,
		-2.06160831451416,
		-0.3660634160041809],
		"max":[1.486348032951355,
		0.7958645820617676,
		1.099338173866272]
	},
	{
		"bufferView":1,
		"type":"VEC3",
		"componentType":5126,
		"count":3324,
		"byteOffset":12,
		"min":[-0.996879518032074,
		-1.0,
		-0.9939248561859131],
		"max":[0.9992695450782776,
		1.0,
		0.9939248561859131]
	},
	{
		"bufferView":1,
		"type":"VEC2",
		"componentType":5126,
		"count":3324,
		"byteOffset":24,
		"min":[0.0,
		0.0],
		"max":[1.0,
		1.0]
	},
	{
		"bufferView":2,
		"type":"SCALAR",
		"componentType":5123,
		"count":348,
		"byteOffset":0,
		"min":[0],
		"max":[347]
	},
	{
		"bufferView":3,
		"type":"VEC3",
		"componentType":5126,
		"count":348,
		"byteOffset":0,
		"min":[-1.1136987209320069,
		-0.04776185750961304,
		-0.9164791703224182],
		"max":[1.495491862297058,
		2.5181963443756105,
		1.5759812593460084]
	},
	{
		"bufferView":3,
		"type":"VEC3",
		"componentType":5126,
		"count":348,
		"byteOffset":12,
		"min":[-0.9852418899536133,
		-0.9850163459777832,
		-0.9451204538345337],
		"max":[0.9934455752372742,
		0.9804387092590332,
		0.9644609093666077]
	},
	{
		"bufferView":3,
		"type":"VEC2",
		"componentType":5126,
		"count":348,
		"byteOffset":24,
		"min":[0.003000000026077032,
		0.004999999888241291],
		"max":[0.9929999709129334,
		0.9989999532699585]
	},
	{
		"bufferView":4,
		"type":"SCALAR",
		"componentType":5123,
		"count":1320,
		"byteOffset":0,
		"min":[0],
		"max":[1319]
	},
	{
		"bufferView":5,
		"type":"VEC3",
		"componentType":5126,
		"count":1320,
		"byteOffset":0,
		"min":[-1.2457557916641236,
		-0.23808862268924714,
		-1.0341664552688599],
		"max":[1.4294233322143555,
		2.6229324340820314,
		1.7418943643569947]
	},
	{
		"bufferView":5,
		"type":"VEC3",
		"componentType":5126,
		"count":1320,
		"byteOffset":12,
		"min":[-1.0,
		-0.9835109114646912,
		-0.9960581660270691],
		"max":[1.0,
		0.9835109114646912,
		0.9960581660270691]
	},
	{
		"bufferView":5,
		"type":"VEC2",
		"componentType":5126,
		"count":1320,
		"byteOffset":24,
		"min":[0.0,
		0.0],
		"max":[1.0,
		0.8659999370574951]
	},
	{
		"bufferView":6,
		"type":"SCALAR",
		"componentType":5123,
		"count":720,
		"byteOffset":0,
		"min":[0],
		"max":[719]
	},
	{
		"bufferView":7,
		"type":"VEC3",
		"componentType":5126,
		"count":720,
		"byteOffset":0,
		"min":[-0.3631736636161804,
		-0.3969719409942627,
		-0.4609544277191162],
		"max":[0.3283442556858063,
		-0.06349387764930725,
		-0.14605490863323213]
	},
	{
		"bufferView":7,
		"type":"VEC3",
		"componentType":5126,
		"count":720,
		"byteOffset":12,
		"min":[-1.0,
		-1.0,
		-1.0],
		"max":[1.0,
		1.0,
		1.0]
	},
	{
		"bufferView":7,
		"type":"VEC2",
		"componentType":5126,
		"count":720,
		"byteOffset":24,
		"min":[0.0,
		0.0],
		"max":[1.0,
		1.0]
	},
	{
		"bufferView":8,
		"type":"SCALAR",
		"componentType":5123,
		"count":8340,
		"byteOffset":0,
		"min":[0],
		"max":[8339]
	},
	{
		"bufferView":9,
		"type":"VEC3",
		"componentType":5126,
		"count":8340,
		"byteOffset":0,
		"min":[-0.32773086428642275,
		-0.9622746706008911,
		-0.4121571183204651],
		"max":[0.25923195481300356,
		-0.4477337896823883,
		-0.24653048813343049]
	},
	{
		"bufferView":9,
		"type":"VEC3",
		"componentType":5126,
		"count":8340,
		"byteOffset":12,
		"min":[-1.0,
		-1.0,
		-1.0],
		"max":[1.0,
		1.0,
		1.0]
	},
	{
		"bufferView":9,
		"type":"VEC2",
		"componentType":5126,
		"count":8340,
		"byteOffset":24,
		"min":[0.0,
		0.0],
		"max":[1.0,
		1.0]
	}],
	"bufferViews":[{
		"buffer":0,
		"byteOffset":0,
		"byteLength":6648,
		"target":34963
	},
	{
		"buffer":0,
		"byteOffset":6648,
		"byteLength":106368,
		"target":34962,
		"byteStride":32
	},
	{
		"buffer":1,
		"byteOffset":0,
		"byteLength":696,
		"target":34963
	},
	{
		"buffer":1,
		"byteOffset":696,
		"byteLength":11136,
		"target":34962,
		"byteStride":32
	},
	{
		"buffer":2,
		"byteOffset":0,
		"byteLength":2640,
		"target":34963
	},
	{
		"buffer":2,
		"byteOffset":2640,
		"byteLength":42240,
		"target":34962,
		"byteStride":32
	},
	{
		"buffer":3,
		"byteOffset":0,
		"byteLength":1440,
		"target":34963
	},
	{
		"buffer":3,
		"byteOffset":1440,
		"byteLength":23040,
		"target":34962,
		"byteStride":32
	},
	{
		"buffer":4,
		"byteOffset":0,
		"byteLength":16680,
		"target":34963
	},
	{
		"buffer":4,
		"byteOffset":16680,
		"byteLength":266880,
		"target":34962,
		"byteStride":32
	}],
	"buffers":[{
		"uri":"data:application/octet-stream;base64,",
		"byteLength":113016
	},
	{
		"uri":"data:application/octet-stream;base64,",
		"byteLength":11832
	},
	{
		"uri":"data:application/octet-stream;base64,",
		"byteLength":44880
	},
	{
		"uri":"data:application/octet-stream;base64,",
		"byteLength":24480
	},
	{
		"uri":"data:application/octet-stream;base64,",
		"byteLength":283560
	}],
	"materials":[{
		"pbrMetallicRoughness":{
			"baseColorFactor":[0.1527811618923305,
			0.08557351051499383,
			0.06183860286894134,
			1.0],
			"metallicFactor":0.0,
			"roughnessFactor":0.20000000298023225
		},
		"emissiveFactor":[0.0,
		0.0,
		0.0],
		"alphaMode":"OPAQUE",
		"doubleSided":false,
		"name":"brown"
	},
	{
		"pbrMetallicRoughness":{
			"baseColorFactor":[0.11399646767526427,
			0.35879816729323318,
			0.11399646767526427,
			1.0],
			"metallicFactor":0.0,
			"roughnessFactor":0.20000000298023225
		},
		"emissiveFactor":[0.0,
		0.0,
		0.0],
		"alphaMode":"OPAQUE",
		"doubleSided":false,
		"name":"green"
	},
	{
		"pbrMetallicRoughness":{
			"baseColorFactor":[0.27530059736817838,
			0.8343808740601502,
			0.27530059736817838,
			1.0],
			"metallicFactor":0.0,
			"roughnessFactor":0.20000000298023225
		},
		"emissiveFactor":[0.0,
		0.0,
		0.0],
		"alphaMode":"OPAQUE",
		"doubleSided":false,
		"name":"lightgreen"
	},
	{
		"pbrMetallicRoughness":{
			"baseColorFactor":[0.0,
			0.0,
			0.0,
			1.0],
			"metallicFactor":0.0,
			"roughnessFactor":0.20000000298023225
		},
		"emissiveFactor":[0.0,
		0.0,
		0.0],
		"alphaMode":"OPAQUE",
		"doubleSided":false,
		"name":"black"
	},
	{
		"pbrMetallicRoughness":{
			"baseColorFactor":[0.7734091798307121,
			0.3678519242957031,
			0.3678519242957031,
			1.0],
			"metallicFactor":0.0,
			"roughnessFactor":0.20000000298023225
		},
		"emissiveFactor":[0.0,
		0.0,
		0.0],
		"alphaMode":"OPAQUE",
		"doubleSided":false,
		"name":"pink"
	}]
}