{
	"scenes":[{
		"nodes":[0]
	}],
	"asset":{
		"version":"2.0",
		"generator":"Maxon Cinema 4D 2025.1.0 (#200000219)"
	},
	"nodes":[{
		"name":"tree",
		"children":[1,
		2,
		3,
		4,
		5]
	},
	{
		"name":"tree-body",
		"mesh":0
	},
	{
		"name":"tree-head",
		"mesh":1
	},
	{
		"name":"tree-leaves",
		"mesh":2
	},
	{
		"name":"tree-eye",
		"mesh":3
	},
	{
		"name":"tree-nose",
		"mesh":4
	}],
	"meshes":[{
		"name":"tree-body",
		"primitives":[{
			"attributes":{
				"POSITION":1,
				"NORMAL":2,
				"TEXCOORD_0":3
			},
			"indices":0,
			"material":0
		}]
	},
	{
		"name":"tree-head",
		"primitives":[{
			"attributes":{
				"POSITION":5,
				"NORMAL":6,
				"TEXCOORD_0":7
			},
			"indices":4,
			"material":1
		}]
	},
	{
		"name":"tree-leaves",
		"primitives":[{
			"attributes":{
				"POSITION":9,
				"NORMAL":10,
				"TEXCOORD_0":11
			},
			"indices":8,
			"material":2
		}]
	},
	{
		"name":"tree-eye",
		"primitives":[{
			"attributes":{
				"POSITION":13,
				"NORMAL":14,
				"TEXCOORD_0":15
			},
			"indices":12,
			"material":3
		}]
	},
	{
		"name":"tree-nose",
		"primitives":[{
			"attributes":{
				"POSITION":17,
				"NORMAL":18,
				"TEXCOORD_0":19
			},
			"indices":16,
			"material":4
		}]
	}],
	"accessors":[{
		"bufferView":0,
		"type":"SCALAR",
		"componentType":5123,
		"count":3324,
		"byteOffset":0,
		"min":[0],
		"max":[3323]
	},
	{
		"bufferView":1,
		"type":"VEC3",
		"componentType":5126,
		"count":3324,
		"byteOffset":0,
		"min":[-1.2154898643493653,
		-1.7261074781417847,
		-0.3382833003997803],
		"max":[1.4147870540618897,
		1.131365418434143,
		1.1271183490753174]
	},
	{
		"bufferView":1,
		"type":"VEC3",
		"componentType":5126,
		"count":3324,
		"byteOffset":12,
		"min":[-0.996879518032074,
		-1.0,
		-0.9939248561859131],
		"max":[0.9992695450782776,
		1.0,
		0.9939248561859131]
	},
	{
		"bufferView":1,
		"type":"VEC2",
		"componentType":5126,
		"count":3324,
		"byteOffset":24,
		"min":[0.0,
		0.0],
		"max":[1.0,
		1.0]
	},
	{
		"bufferView":2,
		"type":"SCALAR",
		"componentType":5123,
		"count":348,
		"byteOffset":0,
		"min":[0],
		"max":[347]
	},
	{
		"bufferView":3,
		"type":"VEC3",
		"componentType":5126,
		"count":348,
		"byteOffset":0,
		"min":[-1.1852596998214722,
		0.28773900866508486,
		-0.8886990547180176],
		"max":[1.4239307641983033,
		2.8536972999572756,
		1.6037613153457642]
	},
	{
		"bufferView":3,
		"type":"VEC3",
		"componentType":5126,
		"count":348,
		"byteOffset":12,
		"min":[-0.9852418899536133,
		-0.9850163459777832,
		-0.9451204538345337],
		"max":[0.9934455752372742,
		0.9804387092590332,
		0.9644609093666077]
	},
	{
		"bufferView":3,
		"type":"VEC2",
		"componentType":5126,
		"count":348,
		"byteOffset":24,
		"min":[0.003000000026077032,
		0.004999999888241291],
		"max":[0.9929999709129334,
		0.9989999532699585]
	},
	{
		"bufferView":4,
		"type":"SCALAR",
		"componentType":5123,
		"count":840,
		"byteOffset":0,
		"min":[0],
		"max":[839]
	},
	{
		"bufferView":5,
		"type":"VEC3",
		"componentType":5126,
		"count":840,
		"byteOffset":0,
		"min":[-1.294123888015747,
		0.3483772277832031,
		-1.076752781867981],
		"max":[1.0254532098770142,
		2.995004892349243,
		1.7908985614776612]
	},
	{
		"bufferView":5,
		"type":"VEC3",
		"componentType":5126,
		"count":840,
		"byteOffset":12,
		"min":[-1.0,
		-0.9817740321159363,
		-0.9960581660270691],
		"max":[1.0,
		0.9817740321159363,
		0.9960581660270691]
	},
	{
		"bufferView":5,
		"type":"VEC2",
		"componentType":5126,
		"count":840,
		"byteOffset":24,
		"min":[0.0,
		0.0],
		"max":[1.0,
		0.8659999370574951]
	},
	{
		"bufferView":6,
		"type":"SCALAR",
		"componentType":5123,
		"count":720,
		"byteOffset":0,
		"min":[0],
		"max":[719]
	},
	{
		"bufferView":7,
		"type":"VEC3",
		"componentType":5126,
		"count":720,
		"byteOffset":0,
		"min":[-0.43473467230796816,
		-0.06147109717130661,
		-0.4331743121147156],
		"max":[0.25678324699401858,
		0.2720069885253906,
		-0.11827480047941208]
	},
	{
		"bufferView":7,
		"type":"VEC3",
		"componentType":5126,
		"count":720,
		"byteOffset":12,
		"min":[-1.0,
		-1.0,
		-1.0],
		"max":[1.0,
		1.0,
		1.0]
	},
	{
		"bufferView":7,
		"type":"VEC2",
		"componentType":5126,
		"count":720,
		"byteOffset":24,
		"min":[0.0,
		0.0],
		"max":[1.0,
		1.0]
	},
	{
		"bufferView":8,
		"type":"SCALAR",
		"componentType":5123,
		"count":8340,
		"byteOffset":0,
		"min":[0],
		"max":[8339]
	},
	{
		"bufferView":9,
		"type":"VEC3",
		"componentType":5126,
		"count":8340,
		"byteOffset":0,
		"min":[-0.39929187297821047,
		-0.6267738342285156,
		-0.38437700271606448],
		"max":[0.18767093122005464,
		-0.11223293840885163,
		-0.21875037252902986]
	},
	{
		"bufferView":9,
		"type":"VEC3",
		"componentType":5126,
		"count":8340,
		"byteOffset":12,
		"min":[-1.0,
		-1.0,
		-1.0],
		"max":[1.0,
		1.0,
		1.0]
	},
	{
		"bufferView":9,
		"type":"VEC2",
		"componentType":5126,
		"count":8340,
		"byteOffset":24,
		"min":[0.0,
		0.0],
		"max":[1.0,
		1.0]
	}],
	"bufferViews":[{
		"buffer":0,
		"byteOffset":0,
		"byteLength":6648,
		"target":34963
	},
	{
		"buffer":0,
		"byteOffset":6648,
		"byteLength":106368,
		"target":34962,
		"byteStride":32
	},
	{
		"buffer":1,
		"byteOffset":0,
		"byteLength":696,
		"target":34963
	},
	{
		"buffer":1,
		"byteOffset":696,
		"byteLength":11136,
		"target":34962,
		"byteStride":32
	},
	{
		"buffer":2,
		"byteOffset":0,
		"byteLength":1680,
		"target":34963
	},
	{
		"buffer":2,
		"byteOffset":1680,
		"byteLength":26880,
		"target":34962,
		"byteStride":32
	},
	{
		"buffer":3,
		"byteOffset":0,
		"byteLength":1440,
		"target":34963
	},
	{
		"buffer":3,
		"byteOffset":1440,
		"byteLength":23040,
		"target":34962,
		"byteStride":32
	},
	{
		"buffer":4,
		"byteOffset":0,
		"byteLength":16680,
		"target":34963
	},
	{
		"buffer":4,
		"byteOffset":16680,
		"byteLength":266880,
		"target":34962,
		"byteStride":32
	}],
	"buffers":[{
		"uri":"data:application/octet-stream;base64,",
		"byteLength":113016
	},
	{
		"uri":"data:application/octet-stream;base64,",
		"byteLength":11832
	},
	{
		"uri":"data:application/octet-stream;base64,",
		"byteLength":28560
	},
	{
		"uri":"data:application/octet-stream;base64,",
		"byteLength":24480
	},
	{
		"uri":"data:application/octet-stream;base64,",
		"byteLength":283560
	}],
	"materials":[{
		"pbrMetallicRoughness":{
			"baseColorFactor":[0.545098039215686,
			0.2705882352941175,
			0.07450980392156861,
			1.0],
			"metallicFactor":0.0,
			"roughnessFactor":1.0
		},
		"emissiveFactor":[0.0,
		0.0,
		0.0],
		"alphaMode":"OPAQUE",
		"doubleSided":false,
		"name":"body"
	},
	{
		"pbrMetallicRoughness":{
			"baseColorFactor":[0.7482352941176439,
			0.9411764705882353,
			0.5552941176470587,
			1.0],
			"metallicFactor":0.0,
			"roughnessFactor":1.0
		},
		"emissiveFactor":[0.0,
		0.0,
		0.0],
		"alphaMode":"OPAQUE",
		"doubleSided":false,
		"name":"head"
	},
	{
		"pbrMetallicRoughness":{
			"baseColorFactor":[0.28235294117647055,
			0.6274509803921564,
			0.3372549019607842,
			1.0],
			"metallicFactor":0.0,
			"roughnessFactor":0.20000000298023225
		},
		"emissiveFactor":[0.0,
		0.0,
		0.0],
		"alphaMode":"OPAQUE",
		"doubleSided":false,
		"name":"leaves"
	},
	{
		"pbrMetallicRoughness":{
			"baseColorFactor":[0.18,
			0.1199999999999989,
			0.08999999999999905,
			1.0],
			"metallicFactor":0.0,
			"roughnessFactor":0.20000000298023225
		},
		"emissiveFactor":[0.0,
		0.0,
		0.0],
		"alphaMode":"OPAQUE",
		"doubleSided":false,
		"name":"eye"
	},
	{
		"pbrMetallicRoughness":{
			"baseColorFactor":[0.8627450980392157,
			0.7268627450980386,
			0.5003921568627452,
			1.0],
			"metallicFactor":0.0,
			"roughnessFactor":0.20000000298023225
		},
		"emissiveFactor":[0.0,
		0.0,
		0.0],
		"alphaMode":"OPAQUE",
		"doubleSided":false,
		"name":"nose"
	}]
}